<mxfile host="app.diagrams.net" agent="Mozilla/5.0 (X11; Linux x86_64; rv:138.0) Gecko/20100101 Firefox/138.0" version="27.0.6">
  <diagram name="第 1 页" id="mA3J9KdcY4U7r3eX0lB-">
    <mxGraphModel dx="803" dy="441" grid="1" gridSize="10" guides="1" tooltips="1" connect="1" arrows="1" fold="1" page="1" pageScale="1" pageWidth="827" pageHeight="1169" math="0" shadow="0">
      <root>
        <mxCell id="0" />
        <mxCell id="1" parent="0" />
        <mxCell id="rH2-k-86D0QUAoatwzZ6-1" value="x" style="rounded=0;whiteSpace=wrap;html=1;fillColor=#dae8fc;strokeColor=#6c8ebf;" vertex="1" parent="1">
          <mxGeometry x="230" y="170" width="40" height="40" as="geometry" />
        </mxCell>
        <mxCell id="rH2-k-86D0QUAoatwzZ6-3" value="W" style="rounded=0;whiteSpace=wrap;html=1;fillColor=#f8cecc;strokeColor=#b85450;" vertex="1" parent="1">
          <mxGeometry x="300" y="170" width="40" height="40" as="geometry" />
        </mxCell>
        <mxCell id="rH2-k-86D0QUAoatwzZ6-5" value="y" style="rounded=0;whiteSpace=wrap;html=1;fillColor=#ffe6cc;strokeColor=#d79b00;" vertex="1" parent="1">
          <mxGeometry x="360" y="170" width="40" height="40" as="geometry" />
        </mxCell>
        <mxCell id="rH2-k-86D0QUAoatwzZ6-6" value="" style="shape=sumEllipse;perimeter=ellipsePerimeter;whiteSpace=wrap;html=1;backgroundOutline=1;" vertex="1" parent="1">
          <mxGeometry x="280" y="185" width="10" height="10" as="geometry" />
        </mxCell>
        <mxCell id="rH2-k-86D0QUAoatwzZ6-7" value="&lt;b&gt;&lt;font style=&quot;font-size: 14px;&quot;&gt;=&lt;/font&gt;&lt;/b&gt;" style="text;html=1;align=center;verticalAlign=middle;whiteSpace=wrap;rounded=0;" vertex="1" parent="1">
          <mxGeometry x="320" y="175" width="60" height="30" as="geometry" />
        </mxCell>
        <mxCell id="rH2-k-86D0QUAoatwzZ6-8" value="y" style="rounded=0;whiteSpace=wrap;html=1;fillColor=#ffe6cc;strokeColor=#d79b00;" vertex="1" parent="1">
          <mxGeometry x="230" y="220" width="40" height="40" as="geometry" />
        </mxCell>
        <mxCell id="rH2-k-86D0QUAoatwzZ6-9" value="&lt;b&gt;chunk into&lt;/b&gt;" style="text;html=1;align=center;verticalAlign=middle;whiteSpace=wrap;rounded=0;" vertex="1" parent="1">
          <mxGeometry x="280" y="225" width="60" height="30" as="geometry" />
        </mxCell>
        <mxCell id="rH2-k-86D0QUAoatwzZ6-11" value="a" style="rounded=0;whiteSpace=wrap;html=1;fillColor=#ffe6cc;strokeColor=#d79b00;" vertex="1" parent="1">
          <mxGeometry x="240" y="265" width="20" height="40" as="geometry" />
        </mxCell>
        <mxCell id="rH2-k-86D0QUAoatwzZ6-12" value="b" style="rounded=0;whiteSpace=wrap;html=1;fillColor=#ffe6cc;strokeColor=#d79b00;" vertex="1" parent="1">
          <mxGeometry x="380" y="220" width="20" height="40" as="geometry" />
        </mxCell>
        <mxCell id="rH2-k-86D0QUAoatwzZ6-13" value="&lt;b&gt;apply &lt;/b&gt;&lt;b&gt;SiLU&lt;/b&gt;" style="text;html=1;align=center;verticalAlign=middle;whiteSpace=wrap;rounded=0;" vertex="1" parent="1">
          <mxGeometry x="280" y="275" width="60" height="30" as="geometry" />
        </mxCell>
        <mxCell id="rH2-k-86D0QUAoatwzZ6-14" value="a" style="rounded=0;whiteSpace=wrap;html=1;fillColor=#ffe6cc;strokeColor=#d79b00;" vertex="1" parent="1">
          <mxGeometry x="360" y="220" width="20" height="40" as="geometry" />
        </mxCell>
        <mxCell id="rH2-k-86D0QUAoatwzZ6-15" value="a" style="rounded=0;whiteSpace=wrap;html=1;fillColor=#fff2cc;strokeColor=#d6b656;" vertex="1" parent="1">
          <mxGeometry x="370" y="265" width="20" height="40" as="geometry" />
        </mxCell>
        <mxCell id="rH2-k-86D0QUAoatwzZ6-17" value="a" style="rounded=0;whiteSpace=wrap;html=1;fillColor=#fff2cc;strokeColor=#d6b656;" vertex="1" parent="1">
          <mxGeometry x="240" y="320" width="20" height="40" as="geometry" />
        </mxCell>
        <mxCell id="rH2-k-86D0QUAoatwzZ6-18" value="b" style="rounded=0;whiteSpace=wrap;html=1;fillColor=#ffe6cc;strokeColor=#d79b00;" vertex="1" parent="1">
          <mxGeometry x="290" y="320" width="20" height="40" as="geometry" />
        </mxCell>
        <mxCell id="rH2-k-86D0QUAoatwzZ6-19" value="&lt;b&gt;&lt;font style=&quot;font-size: 14px;&quot;&gt;*&lt;/font&gt;&lt;/b&gt;" style="text;html=1;align=center;verticalAlign=middle;whiteSpace=wrap;rounded=0;" vertex="1" parent="1">
          <mxGeometry x="260" y="330" width="30" height="30" as="geometry" />
        </mxCell>
        <mxCell id="rH2-k-86D0QUAoatwzZ6-20" value="&lt;b&gt;&lt;font style=&quot;font-size: 14px;&quot;&gt;=&lt;/font&gt;&lt;/b&gt;" style="text;html=1;align=center;verticalAlign=middle;whiteSpace=wrap;rounded=0;" vertex="1" parent="1">
          <mxGeometry x="290" y="325" width="60" height="30" as="geometry" />
        </mxCell>
        <mxCell id="rH2-k-86D0QUAoatwzZ6-21" value="out" style="rounded=0;whiteSpace=wrap;html=1;fillColor=#d5e8d4;strokeColor=#82b366;" vertex="1" parent="1">
          <mxGeometry x="340" y="320" width="20" height="40" as="geometry" />
        </mxCell>
        <mxCell id="rH2-k-86D0QUAoatwzZ6-24" value="W" style="rounded=0;whiteSpace=wrap;html=1;fillColor=#f8cecc;strokeColor=#b85450;" vertex="1" parent="1">
          <mxGeometry x="510" y="170" width="40" height="40" as="geometry" />
        </mxCell>
        <mxCell id="rH2-k-86D0QUAoatwzZ6-26" value="w2" style="rounded=0;whiteSpace=wrap;html=1;fillColor=#f8cecc;strokeColor=#b85450;" vertex="1" parent="1">
          <mxGeometry x="630" y="170" width="20" height="40" as="geometry" />
        </mxCell>
        <mxCell id="rH2-k-86D0QUAoatwzZ6-27" value="w1" style="rounded=0;whiteSpace=wrap;html=1;fillColor=#f8cecc;strokeColor=#b85450;" vertex="1" parent="1">
          <mxGeometry x="580" y="225" width="20" height="40" as="geometry" />
        </mxCell>
        <mxCell id="rH2-k-86D0QUAoatwzZ6-28" value="x" style="rounded=0;whiteSpace=wrap;html=1;fillColor=#dae8fc;strokeColor=#6c8ebf;" vertex="1" parent="1">
          <mxGeometry x="510" y="225" width="40" height="40" as="geometry" />
        </mxCell>
        <mxCell id="rH2-k-86D0QUAoatwzZ6-29" value="v1" style="rounded=0;whiteSpace=wrap;html=1;fillColor=#fff2cc;strokeColor=#d6b656;" vertex="1" parent="1">
          <mxGeometry x="620" y="225" width="20" height="40" as="geometry" />
        </mxCell>
        <mxCell id="rH2-k-86D0QUAoatwzZ6-30" value="x" style="rounded=0;whiteSpace=wrap;html=1;fillColor=#dae8fc;strokeColor=#6c8ebf;" vertex="1" parent="1">
          <mxGeometry x="510" y="275" width="40" height="40" as="geometry" />
        </mxCell>
        <mxCell id="rH2-k-86D0QUAoatwzZ6-31" value="w2" style="rounded=0;whiteSpace=wrap;html=1;fillColor=#f8cecc;strokeColor=#b85450;" vertex="1" parent="1">
          <mxGeometry x="580" y="275" width="20" height="40" as="geometry" />
        </mxCell>
        <mxCell id="rH2-k-86D0QUAoatwzZ6-32" value="w1" style="rounded=0;whiteSpace=wrap;html=1;fillColor=#f8cecc;strokeColor=#b85450;" vertex="1" parent="1">
          <mxGeometry x="610" y="170" width="20" height="40" as="geometry" />
        </mxCell>
        <mxCell id="rH2-k-86D0QUAoatwzZ6-33" value="v2" style="rounded=0;whiteSpace=wrap;html=1;fillColor=#fff2cc;strokeColor=#d6b656;" vertex="1" parent="1">
          <mxGeometry x="620" y="275" width="20" height="40" as="geometry" />
        </mxCell>
        <mxCell id="rH2-k-86D0QUAoatwzZ6-34" value="v1" style="rounded=0;whiteSpace=wrap;html=1;fillColor=#fff2cc;strokeColor=#d6b656;" vertex="1" parent="1">
          <mxGeometry x="540" y="325" width="20" height="40" as="geometry" />
        </mxCell>
        <mxCell id="rH2-k-86D0QUAoatwzZ6-35" value="&lt;b&gt;SiLU(&amp;nbsp;&amp;nbsp;&amp;nbsp; &amp;nbsp; &amp;nbsp; &amp;nbsp; )&lt;/b&gt;" style="text;whiteSpace=wrap;html=1;" vertex="1" parent="1">
          <mxGeometry x="500" y="335" width="80" height="20" as="geometry" />
        </mxCell>
        <mxCell id="rH2-k-86D0QUAoatwzZ6-36" value="v2" style="rounded=0;whiteSpace=wrap;html=1;fillColor=#fff2cc;strokeColor=#d6b656;" vertex="1" parent="1">
          <mxGeometry x="591" y="325" width="20" height="40" as="geometry" />
        </mxCell>
        <mxCell id="rH2-k-86D0QUAoatwzZ6-37" value="&lt;b&gt;&lt;font style=&quot;font-size: 14px;&quot;&gt;*&lt;/font&gt;&lt;/b&gt;" style="text;html=1;align=center;verticalAlign=middle;whiteSpace=wrap;rounded=0;" vertex="1" parent="1">
          <mxGeometry x="564" y="336" width="30" height="30" as="geometry" />
        </mxCell>
        <mxCell id="rH2-k-86D0QUAoatwzZ6-38" value="out" style="rounded=0;whiteSpace=wrap;html=1;fillColor=#d5e8d4;strokeColor=#82b366;" vertex="1" parent="1">
          <mxGeometry x="637" y="326" width="20" height="40" as="geometry" />
        </mxCell>
        <mxCell id="rH2-k-86D0QUAoatwzZ6-39" value="&lt;b&gt;&lt;font style=&quot;font-size: 14px;&quot;&gt;=&lt;/font&gt;&lt;/b&gt;" style="text;html=1;align=center;verticalAlign=middle;whiteSpace=wrap;rounded=0;" vertex="1" parent="1">
          <mxGeometry x="593" y="330" width="60" height="30" as="geometry" />
        </mxCell>
        <mxCell id="rH2-k-86D0QUAoatwzZ6-40" value="&lt;b&gt;chunk into&lt;/b&gt;" style="text;html=1;align=center;verticalAlign=middle;whiteSpace=wrap;rounded=0;" vertex="1" parent="1">
          <mxGeometry x="549" y="180" width="60" height="30" as="geometry" />
        </mxCell>
        <mxCell id="rH2-k-86D0QUAoatwzZ6-41" value="" style="shape=singleArrow;whiteSpace=wrap;html=1;" vertex="1" parent="1">
          <mxGeometry x="420" y="255" width="80" height="30" as="geometry" />
        </mxCell>
        <mxCell id="rH2-k-86D0QUAoatwzZ6-42" value="&lt;b&gt;算子融合&lt;/b&gt;" style="text;html=1;align=center;verticalAlign=middle;whiteSpace=wrap;rounded=0;" vertex="1" parent="1">
          <mxGeometry x="420" y="235" width="60" height="30" as="geometry" />
        </mxCell>
        <mxCell id="rH2-k-86D0QUAoatwzZ6-43" value="" style="shape=sumEllipse;perimeter=ellipsePerimeter;whiteSpace=wrap;html=1;backgroundOutline=1;" vertex="1" parent="1">
          <mxGeometry x="560" y="240" width="10" height="10" as="geometry" />
        </mxCell>
        <mxCell id="rH2-k-86D0QUAoatwzZ6-44" value="" style="shape=sumEllipse;perimeter=ellipsePerimeter;whiteSpace=wrap;html=1;backgroundOutline=1;" vertex="1" parent="1">
          <mxGeometry x="560" y="285" width="10" height="10" as="geometry" />
        </mxCell>
        <mxCell id="rH2-k-86D0QUAoatwzZ6-45" value="&lt;b&gt;&lt;font style=&quot;font-size: 14px;&quot;&gt;=&lt;/font&gt;&lt;/b&gt;" style="text;html=1;align=center;verticalAlign=middle;whiteSpace=wrap;rounded=0;" vertex="1" parent="1">
          <mxGeometry x="580" y="230" width="60" height="30" as="geometry" />
        </mxCell>
        <mxCell id="rH2-k-86D0QUAoatwzZ6-46" value="&lt;b&gt;&lt;font style=&quot;font-size: 14px;&quot;&gt;=&lt;/font&gt;&lt;/b&gt;" style="text;html=1;align=center;verticalAlign=middle;whiteSpace=wrap;rounded=0;" vertex="1" parent="1">
          <mxGeometry x="580" y="280" width="60" height="30" as="geometry" />
        </mxCell>
        <mxCell id="rH2-k-86D0QUAoatwzZ6-47" value="&lt;div&gt;&lt;i&gt;读取x,W&lt;/i&gt;&lt;/div&gt;&lt;div&gt;&lt;i&gt;写y&lt;/i&gt;&lt;/div&gt;" style="text;html=1;align=center;verticalAlign=middle;whiteSpace=wrap;rounded=0;" vertex="1" parent="1">
          <mxGeometry x="150" y="180" width="60" height="30" as="geometry" />
        </mxCell>
        <mxCell id="rH2-k-86D0QUAoatwzZ6-49" value="&lt;div&gt;&lt;i&gt;读取a&lt;/i&gt;&lt;/div&gt;&lt;div&gt;&lt;i&gt;写a的激活结果&lt;/i&gt;&lt;/div&gt;" style="text;html=1;align=center;verticalAlign=middle;whiteSpace=wrap;rounded=0;" vertex="1" parent="1">
          <mxGeometry x="130" y="275" width="90" height="30" as="geometry" />
        </mxCell>
        <mxCell id="rH2-k-86D0QUAoatwzZ6-50" value="&lt;div&gt;&lt;i&gt;读取a的激活结果,b&lt;/i&gt;&lt;/div&gt;&lt;div&gt;&lt;i&gt;写out&lt;/i&gt;&lt;/div&gt;" style="text;html=1;align=center;verticalAlign=middle;whiteSpace=wrap;rounded=0;" vertex="1" parent="1">
          <mxGeometry x="120" y="326" width="120" height="30" as="geometry" />
        </mxCell>
        <mxCell id="rH2-k-86D0QUAoatwzZ6-51" value="&lt;div&gt;&lt;i&gt;读取x,W&lt;/i&gt;&lt;/div&gt;&lt;div&gt;&lt;i&gt;写out&lt;/i&gt;&lt;/div&gt;" style="text;html=1;align=center;verticalAlign=middle;whiteSpace=wrap;rounded=0;" vertex="1" parent="1">
          <mxGeometry x="670" y="245" width="60" height="30" as="geometry" />
        </mxCell>
      </root>
    </mxGraphModel>
  </diagram>
</mxfile>
